HIERARCHY
ROOT Hips
{
	OFFSET -0.001795 -0.223333 0.028219
	CHANNELS 6 Xposition Yposition Zposition Zrotation Yrotation Xrotation 
	JOINT LeftUpLeg
	{
		OFFSET 0.069520 -0.091406 -0.006815
		CHANNELS 3 Zrotation Yrotation Xrotation
		JOINT LeftLeg
		{
			OFFSET 0.034277 -0.375199 -0.004496
			CHANNELS 3 Zrotation Yrotation Xrotation
			JOINT LeftFoot
			{
				OFFSET -0.013596 -0.397961 -0.043693
				CHANNELS 3 Zrotation Yrotation Xrotation
				JOINT LeftToe
				{
					OFFSET 0.026358 -0.055791 0.119288
					CHANNELS 3 Zrotation Yrotation Xrotation
					End Site
					{
						OFFSET 0.000000 0.000000 0.000000
					}
				}
			}
		}
	}
	JOINT RightUpLeg
	{
		OFFSET -0.067670 -0.090522 -0.004320
		CHANNELS 3 Zrotation Yrotation Xrotation
		JOINT RightLeg
		{
			OFFSET -0.038290 -0.382569 -0.008850
			CHANNELS 3 Zrotation Yrotation Xrotation
			JOINT RightFoot
			{
				OFFSET 0.015774 -0.398415 -0.042312
				CHANNELS 3 Zrotation Yrotation Xrotation
				JOINT RightToe
				{
					OFFSET -0.025372 -0.048144 0.123348
					CHANNELS 3 Zrotation Yrotation Xrotation
					End Site
					{
						OFFSET 0.000000 0.000000 0.000000
					}
				}
			}
		}
	}
	JOINT Spine
	{
		OFFSET -0.002533 0.108963 -0.026696
		CHANNELS 3 Zrotation Yrotation Xrotation
		JOINT Spine1
		{
			OFFSET 0.005487 0.135180 0.001092
			CHANNELS 3 Zrotation Yrotation Xrotation
			JOINT Spine2
			{
				OFFSET 0.001457 0.052922 0.025425
				CHANNELS 3 Zrotation Yrotation Xrotation
				JOINT Neck
				{
					OFFSET -0.002778 0.213870 -0.042857
					CHANNELS 3 Zrotation Yrotation Xrotation
					JOINT Head
					{
						OFFSET 0.005152 0.064970 0.051349
						CHANNELS 3 Zrotation Yrotation Xrotation
						End Site
						{
							OFFSET 0.000000 0.000000 0.000000
						}
					}
				}
				JOINT LeftShoulder
				{
					OFFSET 0.078845 0.121749 -0.034090
					CHANNELS 3 Zrotation Yrotation Xrotation
					JOINT LeftArm
					{
						OFFSET 0.090977 0.030469 -0.008868
						CHANNELS 3 Zrotation Yrotation Xrotation
						JOINT LeftForeArm
						{
							OFFSET 0.259612 -0.012772 -0.027456
							CHANNELS 3 Zrotation Yrotation Xrotation
							JOINT LeftHand
							{
								OFFSET 0.249234 0.008986 -0.001171
								CHANNELS 3 Zrotation Yrotation Xrotation
								End Site
								{
									OFFSET 0.000000 0.000000 0.000000
								}
							}
						}
					}
				}
				JOINT RightShoulder
				{
					OFFSET -0.081759 0.118833 -0.038615
					CHANNELS 3 Zrotation Yrotation Xrotation
					JOINT RightArm
					{
						OFFSET -0.096012 0.032551 -0.009143
						CHANNELS 3 Zrotation Yrotation Xrotation
						JOINT RightForeArm
						{
							OFFSET -0.253742 -0.013329 -0.021401
							CHANNELS 3 Zrotation Yrotation Xrotation
							JOINT RightHand
							{
								OFFSET -0.255298 0.007772 -0.005559
								CHANNELS 3 Zrotation Yrotation Xrotation
								End Site
								{
									OFFSET 0.000000 0.000000 0.000000
								}
							}
						}
					}
				}
			}
		}
	}
}
MOTION
Frames: 10
Frame Time: 0.050000
-0.001643 0.950063 -0.037306 1.658733 -3.565402 5.320371 3.208859 -0.692099 -10.248488 -0.931161 -0.106266 10.693132 1.860708 5.491238 5.030753 0.000000 0.000000 0.000000 -2.719336 0.783328 -8.685661 -4.456201 0.439034 0.003823 2.863242 0.754368 10.540365 0.000000 0.000000 0.000000 7.863871 -0.510026 2.885586 3.688382 -1.761756 0.621702 -6.602268 4.399631 4.446006 17.409965 -10.843244 -10.520188 0.000000 0.000000 0.000000 3.030112 -20.363707 6.617204 -23.641245 -33.601160 2.674896 -25.255206 -78.219427 22.781651 0.000000 0.000000 0.000000 7.157205 8.118316 3.206124 54.366792 27.813594 7.890758 57.117577 71.717835 47.711726 0.000000 0.000000 0.000000 
-0.001190 0.950153 -0.037944 1.650222 -3.552295 5.536455 3.173212 -0.707161 -10.434269 -1.017471 -0.087134 10.620472 2.142051 6.082876 5.246096 0.000000 0.000000 0.000000 -2.712269 0.814680 -9.057979 -4.596787 0.457969 0.066403 3.198084 1.312337 10.779299 0.000000 0.000000 0.000000 7.915048 -0.521897 2.916016 3.737282 -1.787396 0.694494 -6.753236 4.406204 4.553118 17.102706 -10.739911 -10.162498 0.000000 0.000000 0.000000 2.775673 -19.741841 6.438405 -23.289206 -32.335754 2.396326 -41.903244 -79.921550 37.782807 0.000000 0.000000 0.000000 7.026895 7.750312 3.048364 54.403650 28.139288 8.064896 55.880901 72.016016 46.953029 0.000000 0.000000 0.000000 
-0.000682 0.950439 -0.038538 1.768983 -3.723232 5.885080 3.084514 -0.733771 -10.764767 -1.091344 -0.067566 10.581354 2.346465 6.522242 5.497821 0.000000 0.000000 0.000000 -2.817047 0.865177 -9.693307 -4.897581 0.513823 0.391870 3.300597 1.416736 10.933700 0.000000 0.000000 0.000000 7.636145 -0.534362 3.079302 3.846764 -1.841460 0.804349 -6.983984 4.699547 4.437715 17.209160 -10.784439 -10.189189 0.000000 0.000000 0.000000 2.700886 -19.395290 6.329675 -22.515212 -31.182663 2.075996 -63.605139 -80.571227 57.629117 0.000000 0.000000 0.000000 7.180317 7.191874 2.844836 54.541799 28.262803 8.185399 54.484309 72.173713 46.044209 0.000000 0.000000 0.000000 
-0.000218 0.950682 -0.039136 1.922060 -3.955889 6.181451 2.972009 -0.748268 -10.870605 -1.135093 -0.047474 10.104836 2.676881 7.207635 5.839336 0.000000 0.000000 0.000000 -2.874122 0.908714 -10.219393 -5.271559 0.568885 0.603560 3.560005 1.955961 10.847177 0.000000 0.000000 0.000000 7.592822 -0.549336 3.180887 3.785765 -1.806891 0.768052 -7.040973 4.519767 4.478519 16.874116 -10.647533 -9.883305 0.000000 0.000000 0.000000 2.755011 -19.153278 6.261796 -21.906152 -30.179039 1.828020 -75.562697 -80.675492 69.089786 0.000000 0.000000 0.000000 6.858445 7.270699 2.836924 54.807267 28.679313 8.448845 51.553168 72.262380 43.585538 0.000000 0.000000 0.000000 
0.000083 0.950978 -0.040014 1.991017 -4.201288 6.304681 2.922323 -0.740697 -10.701401 -1.069515 -0.050578 9.669240 2.717908 7.308760 6.015917 0.000000 0.000000 0.000000 -2.930081 0.939637 -10.597838 -5.457110 0.603795 0.800067 3.791748 2.484029 10.681209 0.000000 0.000000 0.000000 7.355201 -0.549237 3.277237 3.990049 -1.925866 1.231062 -7.291147 4.591287 3.972554 16.985627 -10.831997 -9.429517 0.000000 0.000000 0.000000 3.336057 -19.207138 6.247573 -21.315194 -30.546892 1.799507 -71.254538 -81.371865 65.610495 0.000000 0.000000 0.000000 6.939459 7.530486 2.953011 54.904727 29.335133 8.851608 46.792462 72.268263 39.721137 0.000000 0.000000 0.000000 
0.000193 0.951073 -0.041316 2.035248 -4.357526 6.442716 3.050760 -0.721571 -10.540181 -1.126858 -0.028442 9.068116 2.887794 7.695152 6.391395 0.000000 0.000000 0.000000 -2.899930 0.980798 -11.062097 -5.664789 0.663043 1.217437 4.109464 3.170274 10.583102 0.000000 0.000000 0.000000 7.251589 -0.580838 3.607394 4.102416 -1.993550 1.540553 -7.364764 4.561793 3.591317 16.973440 -10.987785 -8.822073 0.000000 0.000000 0.000000 3.629180 -19.954887 6.466688 -19.826988 -31.843127 1.724396 -41.387384 -82.257519 38.822420 0.000000 0.000000 0.000000 7.514061 8.308347 3.303815 54.842166 30.510745 9.447613 38.594165 71.159684 32.522054 0.000000 0.000000 0.000000 
0.000196 0.951112 -0.042877 2.004582 -4.253427 6.469837 3.128032 -0.705660 -10.337458 -1.076185 -0.032106 8.509167 2.802482 7.615971 6.714812 0.000000 0.000000 0.000000 -2.891786 0.996322 -11.258342 -5.514206 0.674688 1.520373 4.087912 3.261205 10.377280 0.000000 0.000000 0.000000 7.266590 -0.596977 3.746521 4.446639 -2.172641 1.751224 -7.597949 4.260401 3.264399 16.990662 -11.132540 -8.343255 0.000000 0.000000 0.000000 4.531480 -20.964782 6.718225 -19.061194 -34.512257 1.910139 -6.384948 -78.177895 7.408537 0.000000 0.000000 0.000000 7.771089 9.377415 3.762061 55.281509 31.906827 10.289876 30.737066 69.655183 25.753838 0.000000 0.000000 0.000000 
0.000213 0.951177 -0.044140 1.831860 -4.443905 6.456442 3.428995 -0.667948 -10.084270 -1.057763 -0.025499 8.009346 2.883650 7.841574 7.142122 0.000000 0.000000 0.000000 -2.714555 1.018274 -11.395994 -5.463400 0.688060 1.744160 4.345856 3.749310 10.408521 0.000000 0.000000 0.000000 7.390435 -0.627744 3.979556 4.544277 -2.233477 2.033059 -7.604318 4.299635 2.718602 17.228599 -11.589730 -7.350876 0.000000 0.000000 0.000000 4.823953 -22.435130 7.141713 -17.571513 -36.678149 1.846309 6.162323 -72.522702 -2.443046 0.000000 0.000000 0.000000 8.715687 10.234174 4.188721 55.390310 33.490007 11.167086 23.683309 67.068786 19.601899 0.000000 0.000000 0.000000 
0.000329 0.951155 -0.044830 1.744831 -4.387134 6.399298 3.571724 -0.653693 -10.002146 -1.069067 -0.023497 7.966838 2.814636 7.764456 7.345499 0.000000 0.000000 0.000000 -2.573284 1.030968 -11.472382 -5.465251 0.726094 2.152312 4.522023 4.266903 10.168280 0.000000 0.000000 0.000000 7.624791 -0.658271 4.145031 4.701766 -2.335901 2.441300 -7.393323 3.958980 2.561864 16.938802 -11.573909 -6.710646 0.000000 0.000000 0.000000 5.278206 -23.501482 7.424883 -16.236534 -38.595284 1.733244 12.857580 -66.773902 -6.452736 0.000000 0.000000 0.000000 8.915676 11.404265 4.678967 55.590701 34.826777 11.918518 18.868755 64.779030 15.480898 0.000000 0.000000 0.000000 
0.000531 0.951292 -0.044987 1.667715 -4.464286 6.427943 3.646157 -0.636590 -9.789723 -0.904710 -0.047939 7.637695 3.050546 8.167859 7.272558 0.000000 0.000000 0.000000 -2.462624 1.046138 -11.572816 -5.486082 0.744100 2.327057 4.769661 4.920706 9.931086 0.000000 0.000000 0.000000 7.901790 -0.680662 4.191010 4.815188 -2.408492 2.749834 -7.332274 3.829424 2.503965 17.022851 -11.876997 -5.962181 0.000000 0.000000 0.000000 5.727282 -24.331970 7.626440 -15.042285 -39.657841 1.526035 16.183571 -63.503951 -8.050390 0.000000 0.000000 0.000000 9.372320 12.170528 5.034860 55.481159 35.819880 12.391961 16.049385 63.157649 13.165285 0.000000 0.000000 0.000000 
